<svg xmlns="http://www.w3.org/2000/svg" width="16" height="16" fill="none" viewBox="0 0 16 16"><g clip-path="url(#clip0_1005_11107)"><path fill="#6AA9FF" d="M7.3855 7.95215L6.58667 8.7854L0.287353 15.356C0.122559 15.116 0.03125 14.8282 0.03125 14.5221V1.47681C0.03125 1.14746 0.136597 0.839355 0.326172 0.588867L6.58667 7.11902L7.3855 7.95215Z"/><path fill="#A8EBFA" d="M10.3383 4.87291L8.03564 7.27477L6.58679 5.76378L1.11328 0.0546772C1.4895 -0.0514019 1.8927 -0.0031841 2.2439 0.199819L6.58679 2.70702L10.3383 4.87291Z"/><path fill="#FF5B5B" d="M10.396 11.0934L6.5863 13.2928L2.24341 15.8C2.01257 15.9333 1.75928 16.0002 1.50598 16.0002C1.34985 16.0002 1.19373 15.9746 1.04297 15.924L6.5863 10.142L8.03516 8.63086L10.396 11.0934Z"/><path fill="#FF9F00" d="M13.5416 6.72278L11.175 5.35645L8.68555 7.953L11.2333 10.6104L13.5416 9.27771C14.0034 9.01111 14.2792 8.53345 14.2792 8.00024C14.2792 7.46692 14.0034 6.98938 13.5416 6.72278Z"/><path fill="#2682FF" d="M7.38574 7.95227L6.58691 8.78552V7.11914L7.38574 7.95227Z"/><path fill="#76E2F8" d="M8.03577 7.27478L6.58691 5.76379V2.70703L10.3384 4.87292L8.03577 7.27478Z"/><path fill="#FF3636" d="M10.3966 11.0934L6.58691 13.2928V10.142L8.03577 8.63086L10.3966 11.0934Z"/></g><defs><clipPath id="clip0_1005_11107"><rect width="16" height="16" fill="#fff"/></clipPath></defs></svg>